<?xml version="1.0" encoding="UTF-8" standalone="no"?>
<!-- Created with Inkscape (http://www.inkscape.org/) -->

<svg
   width="3311.6562"
   height="1260.3824"
   viewBox="0 0 876.20907 333.4762"
   version="1.1"
   id="svg1"
   xml:space="preserve"
   xmlns:xlink="http://www.w3.org/1999/xlink"
   xmlns="http://www.w3.org/2000/svg"
   xmlns:svg="http://www.w3.org/2000/svg"><defs
     id="defs1"><linearGradient
       id="linearGradient16"><stop
         style="stop-color:#b07a32;stop-opacity:1;"
         offset="0"
         id="stop17" /><stop
         style="stop-color:#f8eb83;stop-opacity:1;"
         offset="0.5"
         id="stop19" /><stop
         style="stop-color:#b07a32;stop-opacity:1;"
         offset="1"
         id="stop18" /></linearGradient><linearGradient
       id="linearGradient10"><stop
         style="stop-color:#b07a32;stop-opacity:1;"
         offset="0"
         id="stop11" /><stop
         style="stop-color:#f6e881;stop-opacity:1;"
         offset="0.5"
         id="stop13" /><stop
         style="stop-color:#b07a32;stop-opacity:1;"
         offset="1"
         id="stop12" /></linearGradient><linearGradient
       id="linearGradient20"><stop
         style="stop-color:#b07a32;stop-opacity:1;"
         offset="0"
         id="stop21" /><stop
         style="stop-color:#f8eb83;stop-opacity:1;"
         offset="0.5"
         id="stop23" /><stop
         style="stop-color:#b07a32;stop-opacity:1;"
         offset="1"
         id="stop22" /></linearGradient><linearGradient
       xlink:href="#linearGradient20"
       id="linearGradient22"
       x1="15.89677"
       y1="14.402917"
       x2="120.33076"
       y2="120.36263"
       gradientUnits="userSpaceOnUse"
       gradientTransform="translate(-2.6e-4,-132.21405)" /><linearGradient
       xlink:href="#linearGradient10"
       id="linearGradient12"
       x1="-371.46106"
       y1="-225.45711"
       x2="500.25641"
       y2="636.65271"
       gradientUnits="userSpaceOnUse"
       gradientTransform="translate(0,-133.56549)" /><linearGradient
       xlink:href="#linearGradient16"
       id="linearGradient18"
       x1="-373.25345"
       y1="-219.63583"
       x2="517.92908"
       y2="609.82635"
       gradientUnits="userSpaceOnUse"
       gradientTransform="translate(0,-131.63751)" /></defs><g
     id="g19"
     transform="translate(370.37119,127.18645)"><path
       d="m 24.200847,-127.18645 c -10.552137,0 -19.173507,8.62137 -19.173507,19.17351 v 87.062401 c 0,10.55213 8.62137,19.176089 19.173507,19.176089 h 87.062393 c 10.55213,0 19.17609,-8.623959 19.17609,-19.176089 v -87.062401 c 0,-10.55214 -8.62396,-19.17351 -19.17609,-19.17351 z m 0,6.34948 h 10.459311 v 67.685291 c 1.68e-4,2.761293 2.238918,4.999811 5.000211,4.999694 h 5.053956 V -8.1244495 H 24.200847 c -7.120445,0 -12.824023,-5.7056495 -12.824023,-12.8260895 v -87.062401 c 0,-7.12045 5.703578,-12.82403 12.824023,-12.82403 z m 36.917646,0 h 13.229165 v 67.685291 c 1.69e-4,2.761337 2.238875,4.999811 5.000212,4.999694 h 5.053955 V -8.1244495 H 51.064326 V -48.151985 h 5.053955 c 2.761288,1.17e-4 5.000043,-2.238407 5.000212,-4.999694 z m 39.687497,0 h 10.45725 c 7.12044,0 12.82609,5.70358 12.82609,12.82403 v 87.062401 c 0,7.12044 -5.70565,12.8260895 -12.82609,12.8260895 H 90.751826 V -48.151985 h 5.053955 c 2.761343,1.17e-4 5.000039,-2.238351 5.000209,-4.999694 z"
       style="fill:url(#linearGradient22);fill-opacity:1;stroke-width:6.44484;stroke-linecap:round;stroke-linejoin:round"
       id="path10" /><text
       xml:space="preserve"
       style="font-style:normal;font-variant:normal;font-weight:normal;font-stretch:normal;font-size:141.111px;font-family:Boska;-inkscape-font-specification:Boska;text-align:center;letter-spacing:13.2292px;text-anchor:middle;fill:url(#linearGradient18);stroke:none;stroke-width:6.35;stroke-linecap:round;stroke-linejoin:round"
       x="66.322235"
       y="118.18051"
       id="text1"><tspan
         id="tspan1"
         style="letter-spacing:13.2292px;fill:url(#linearGradient18);stroke:none;stroke-width:6.35"
         x="72.936836"
         y="118.18051">Sonata</tspan></text><path
       d="m 181.85815,-70.823068 v 12.190987 H 493.64637 V 194.09876 H -358.1797 V -58.632081 H -46.391485 V -70.823068 H -370.3712 V 206.28974 H 505.83787 V -70.823068 Z"
       style="opacity:1;fill:url(#linearGradient12);fill-opacity:1"
       id="path5" /></g></svg>
